<svg id="Camada_1" data-name="Camada 1" xmlns="http://www.w3.org/2000/svg" viewBox="0 0 67.04 60.87"><defs><style>.cls-1{fill:#f2f2f2;}.cls-2{fill:#b9a794;}.cls-3{fill:#42210b;}.cls-4{fill:#fff;}.cls-5{fill:#f09c26;}</style></defs><title>logo_cafeina</title><path class="cls-1" d="M34.62,64.94a29.7,29.7,0,0,1-21-8.57c-.67.31-1.31.59-1.93.85-.91,1.46-2.1,2.39-3.07,2.39a1.3,1.3,0,0,1-1.22-.8,12.08,12.08,0,0,1-3.27.6,2.17,2.17,0,0,1-1.92-.77c-.37-.55-1.48-2.21,6.05-9.37a29.93,29.93,0,0,1,49.58-33.1c3.61-1.57,6.28-2.36,7.94-2.36a2.18,2.18,0,0,1,1.93.77c.35.53,1.42,2.13-5.52,8.86a29.94,29.94,0,0,1-27.61,41.5ZM9.06,50.59C4.6,55,5.15,55.94,5.18,56s.16.17.69.17a7.51,7.51,0,0,0,1.78-.29,7.25,7.25,0,0,1,.51-1,6.27,6.27,0,0,1,2.16-2.32C9.88,51.88,9.46,51.25,9.06,50.59ZM58.65,17.16a30.22,30.22,0,0,1,2.53,4c4.83-4.7,4.26-5.69,4.23-5.73s-.16-.18-.69-.18C63.9,15.28,62.19,15.61,58.65,17.16Z" transform="translate(-1.48 -4.56)"/><path class="cls-1" d="M34.62,5.56a29.36,29.36,0,0,1,23.1,11.22c3.63-1.59,6.44-2.47,8.1-2.47a1.72,1.72,0,0,1,1.51.55c.82,1.22-1.39,4.32-5.69,8.46A29.44,29.44,0,0,1,13.76,55.77c-.83.39-1.62.74-2.37,1.06-.83,1.37-1.94,2.28-2.73,2.28A.89.89,0,0,1,8.23,59a1.1,1.1,0,0,1-.46-.82,12.63,12.63,0,0,1-3.6.73,1.71,1.71,0,0,1-1.5-.55c-.86-1.27,1.58-4.59,6.25-9a29.44,29.44,0,0,1,25.7-43.8M61,22c3.58-3.4,5.41-5.89,4.78-6.83a1.24,1.24,0,0,0-1.1-.4c-1.34,0-3.73.77-6.85,2.18A30.2,30.2,0,0,1,61,22M5.87,56.65A8.38,8.38,0,0,0,8,56.27a8.09,8.09,0,0,1,.56-1.21,4.77,4.77,0,0,1,2.52-2.35,28.43,28.43,0,0,1-1.94-2.92c-3.34,3.22-5,5.56-4.41,6.47a1.29,1.29,0,0,0,1.11.39m6.37-2,.36-.16c-.1-.11-.2-.22-.29-.34a4.61,4.61,0,0,1-.07.5M34.62,4.56A30.44,30.44,0,0,0,7.68,49.17C1,55.57,1.05,57.74,1.84,58.92a2.63,2.63,0,0,0,2.33,1,11.81,11.81,0,0,0,3-.51,1.55,1.55,0,0,0,.52.46,1.85,1.85,0,0,0,.93.25c1.32,0,2.59-1.24,3.41-2.49L13.55,57A30.45,30.45,0,0,0,62.83,23.56c6.16-6,6.1-8.12,5.33-9.26a2.64,2.64,0,0,0-2.34-1c-1.67,0-4.29.76-7.8,2.25a30.25,30.25,0,0,0-23.4-11Zm24.8,12.81c3.25-1.37,4.7-1.59,5.3-1.59h.2c-.12.42-.71,1.68-3.62,4.57a28.25,28.25,0,0,0-1.88-3ZM5.67,55.64c.11-.4.66-1.58,3.3-4.25.21.33.42.65.64,1a7.32,7.32,0,0,0-1.89,2.2c-.16.29-.3.58-.43.87a6.09,6.09,0,0,1-1.42.22Z" transform="translate(-1.48 -4.56)"/><circle class="cls-2" cx="33.14" cy="30.44" r="29.44"/><circle class="cls-3" cx="33.14" cy="30.44" r="19.97"/><path class="cls-3" d="M21.43,57.93a1.74,1.74,0,0,1,.21-1.26,5.78,5.78,0,0,1,.48-.74,3.22,3.22,0,0,1,1.34-1.16,1.72,1.72,0,0,1,1.46.17,3.77,3.77,0,0,1,.75.51,2.64,2.64,0,0,1,.47.49l-.59.77a4.51,4.51,0,0,0-.45-.39,4.84,4.84,0,0,0-.49-.31,1.29,1.29,0,0,0-.47-.17.71.71,0,0,0-.45.17,3.4,3.4,0,0,0-.61.66,6,6,0,0,0-.39.57.53.53,0,0,0-.05.45,1,1,0,0,0,.47.39l.52.26c.14.07.32.14.53.22l-.58.78a3.9,3.9,0,0,1-1.27-.45A1.65,1.65,0,0,1,21.43,57.93Z" transform="translate(-1.48 -4.56)"/><path class="cls-3" d="M27.84,56.14l1.43.46-.8,4.61-1.19-.39.15-.72-1.32-.42-.51.61-1.18-.38ZM27.66,59l.42-1.73-1.21,1.48Z" transform="translate(-1.48 -4.56)"/><path class="cls-3" d="M30.48,58a1.2,1.2,0,0,1,.58-.8A1.48,1.48,0,0,1,32,57c.63.09,1.25.21,1.87.36l-.31,1L32,58.18a.34.34,0,0,0-.28,0,.36.36,0,0,0-.15.24l-.14.47,1.52.27-.28.93L31.11,60l-.47,1.54-1.2-.16Z" transform="translate(-1.48 -4.56)"/><path class="cls-3" d="M34,61.68a.71.71,0,0,1-.34-.68,1.85,1.85,0,0,1,0-.23l.34-2.4a1.23,1.23,0,0,1,1.34-1.18c.52,0,1.16,0,1.89.06l-.14,1-1.55,0a.37.37,0,0,0-.27.09.49.49,0,0,0-.1.27l0,.29,1.53,0-.13,1L35,60l-.05.36v.08c0,.17.1.25.29.24l1.54,0-.15,1c-.38.05-.71.08-1,.1s-.57,0-.89,0A1.43,1.43,0,0,1,34,61.68Z" transform="translate(-1.48 -4.56)"/><path class="cls-3" d="M37.88,57l1.2-.17L39,61.48l-1.2.17Zm.56-1.29,1-.14-.62,1-.76.11Z" transform="translate(-1.48 -4.56)"/><path class="cls-3" d="M39.66,56.65l.92-.27,1.88,2.15-.31-2.6,1.16-.33.57,4.66-.92.26-1.88-2.14L41.39,61l-1.16.33Z" transform="translate(-1.48 -4.56)"/><path class="cls-3" d="M44.73,54.76l1.34-.69,2.69,3.83-1.12.57-.4-.62L46,58.49l.07.79L45,59.84Zm1.92,2.18-.93-1.53.19,1.91Z" transform="translate(-1.48 -4.56)"/><path class="cls-4" d="M45.51,38.88s-3.12.87-1.84-3,7.2-12.38,5.95-16.66a19.28,19.28,0,0,0-7,4.39,2.71,2.71,0,0,0-2.74-1.14,39.33,39.33,0,0,0-16.6,6.85C15.5,34.71,17,36.6,17,36.6s.91,5.47,11.18,10.32A3.63,3.63,0,0,1,29.48,50c-.11,2.06,6.28-.11,11.58-4.33s8.45-6.9,8.9-8S47.74,38.08,45.51,38.88Zm-2-13.06s3.08-3.31,3.7-3.14S42.6,34.09,42.6,34.09,44,28.5,43.52,25.82Z" transform="translate(-1.48 -4.56)"/><path class="cls-5" d="M67.33,14.86c-1.16-1.72-8.06.72-17.54,5.84h0l0,.36h0c8.78-4.86,15.1-7.3,16-5.88C67.33,17.41,54.88,28.42,38,39.77S6.27,58.49,4.76,56.26C3.68,54.65,9.81,48.51,19.6,41h0l-.36-.3c-11,8.5-17.93,15.67-16.57,17.68,1.82,2.7,17.76-4.85,35.62-16.86S69.15,17.56,67.33,14.86Z" transform="translate(-1.48 -4.56)"/><ellipse class="cls-3" cx="10.02" cy="55.89" rx="3.59" ry="1.65" transform="matrix(0.5, -0.87, 0.87, 0.5, -44.87, 32.06)"/><ellipse class="cls-3" cx="29.5" cy="30.12" rx="13.13" ry="2.82" transform="translate(-12.24 13.03) rotate(-28.31)"/><path class="cls-5" d="M30.84,32.6c1-.55,2-1.11,2.92-1.67a21.71,21.71,0,0,1-4.56.19C30.22,18.06,48,10.36,48,10.36,36.38,13.61,17.39,28.38,18,32.83c.35,2.74,6.74,1.67,11.6.45C30,33.06,30.41,32.84,30.84,32.6Zm-7.69-.79C18.36,29.52,34.44,19.2,34.44,19.2c-9.69,9.52-7.13,13.06-7.13,13.06C23,32.32,23.15,31.81,23.15,31.81Z" transform="translate(-1.48 -4.56)"/></svg>