<?xml version="1.0" encoding="utf-8"?>
<!-- Generator: Adobe Illustrator 23.1.1, SVG Export Plug-In . SVG Version: 6.00 Build 0)  -->
<svg version="1.1" id="Camada_1" xmlns="http://www.w3.org/2000/svg" xmlns:xlink="http://www.w3.org/1999/xlink" x="0px" y="0px"
	 viewBox="0 0 300 300" style="enable-background:new 0 0 300 300;" xml:space="preserve">
<style type="text/css">
	.st0{opacity:0.5;}
	.st1{fill:#F2F2F2;}
	.st2{fill:#B3B3B3;}
	.st3{fill:#343A40;}
	.st4{fill:#FFFFFF;}
	.st5{fill:#999999;}
</style>
<g class="st0">
	<g>
		<path class="st1" d="M148.37,276.66c-33.43,0-64.86-12.85-88.68-36.23c-2.83,1.3-5.56,2.5-8.15,3.6
			c-3.84,6.14-8.89,10.07-12.99,10.07c-1.05,0-2.02-0.25-2.87-0.74c-0.75-0.44-1.66-1.22-2.3-2.63c-5.67,1.68-10.3,2.53-13.8,2.53
			c-3.94,0-6.68-1.09-8.12-3.24c-4.23-6.29,4.14-19.26,25.57-39.66C27.01,191.91,21.72,171.07,21.72,150
			c0-69.84,56.82-126.66,126.66-126.66c38.43,0,74.2,17.1,98.41,46.97c15.29-6.6,26.6-9.95,33.62-9.95c3.95,0,6.69,1.09,8.14,3.25
			c4.07,6.05-3.56,18.32-23.32,37.49c6.51,15.53,9.81,31.97,9.81,48.91C275.03,219.84,218.21,276.66,148.37,276.66z M40.26,215.94
			c-18.86,18.63-16.54,22.64-16.43,22.81c0.12,0.17,0.68,0.75,2.91,0.75c1.9,0,4.44-0.42,7.56-1.26c0.6-1.51,1.31-2.99,2.13-4.41
			c2.59-4.49,5.92-8.02,9.16-9.82C43.75,221.44,41.96,218.74,40.26,215.94z M250.04,74.51c4.03,5.41,7.61,11.13,10.7,17.05
			c20.45-19.86,18.02-24.07,17.9-24.24c-0.12-0.18-0.68-0.75-2.91-0.75C272.28,66.57,265.03,67.98,250.04,74.51z"/>
		<path class="st1" d="M148.37,25.46c39.66,0,74.96,18.56,97.77,47.44c15.33-6.72,27.23-10.42,34.26-10.42
			c3.16,0,5.33,0.75,6.38,2.31c3.47,5.16-5.87,18.28-24.08,35.79c6.56,15.15,10.21,31.85,10.21,49.42
			c0,68.78-55.76,124.54-124.54,124.54c-34.48,0-65.68-14.01-88.23-36.65c-3.5,1.62-6.86,3.11-10.04,4.45
			c-3.49,5.82-8.18,9.64-11.54,9.64c-0.66,0-1.27-0.15-1.81-0.46c-1.08-0.62-1.7-1.86-1.95-3.44c-6.31,2-11.46,3.06-15.21,3.06
			c-3.15,0-5.32-0.75-6.37-2.3c-3.62-5.38,6.68-19.42,26.46-38.06C29.6,192.8,23.83,172.08,23.83,150
			C23.83,81.22,79.59,25.46,148.37,25.46 M260.15,95.06c15.16-14.42,22.93-24.95,20.25-28.93c-0.76-1.14-2.35-1.68-4.67-1.68
			c-5.68,0-15.77,3.28-29,9.21C251.89,80.29,256.4,87.45,260.15,95.06 M26.74,241.61c2.34,0,5.43-0.56,9.16-1.62
			c0.59-1.66,1.37-3.39,2.36-5.11c3.13-5.41,7.32-9.18,10.64-9.95c-2.98-3.95-5.71-8.09-8.21-12.38
			c-14.1,13.63-21.2,23.55-18.62,27.38C22.84,241.07,24.42,241.61,26.74,241.61 M53.7,233.32c0.51-0.22,1.02-0.45,1.54-0.68
			c-0.42-0.48-0.84-0.96-1.25-1.45C53.94,231.87,53.84,232.58,53.7,233.32 M148.37,21.23c-34.4,0-66.73,13.39-91.06,37.72
			S19.6,115.6,19.6,150c0,20.88,5.11,41.54,14.81,59.95c-9.05,8.7-15.84,16.23-20.19,22.4c-3.78,5.36-8.36,13.14-4.51,18.86
			c1.86,2.77,5.19,4.17,9.88,4.17c3.42,0,7.64-0.71,12.83-2.16c0.71,0.94,1.51,1.57,2.22,1.97c1.18,0.68,2.5,1.03,3.93,1.03
			c5.59,0,10.97-5.22,14.42-10.5c2.02-0.86,4.12-1.79,6.28-2.77c24.09,23.13,55.62,35.82,89.11,35.82
			c34.4,0,66.73-13.39,91.06-37.72c24.32-24.32,37.72-56.66,37.72-91.06c0-16.73-3.17-33-9.42-48.39
			c20.39-19.95,27.35-32.08,22.57-39.18c-1.87-2.77-5.2-4.18-9.89-4.18c-7.08,0-18.17,3.19-32.99,9.5
			C222.82,38.14,186.91,21.23,148.37,21.23L148.37,21.23z M253.31,75.41c13.73-5.8,19.89-6.73,22.42-6.73l0,0
			c0.34,0,0.62,0.02,0.83,0.04c-0.49,1.77-2.98,7.1-15.3,19.35C258.88,83.72,256.22,79.48,253.31,75.41L253.31,75.41z M25.9,237.34
			c0.47-1.7,2.79-6.71,13.96-18.02c0.89,1.4,1.8,2.77,2.73,4.11c-2.9,2.14-5.7,5.37-7.99,9.34c-0.69,1.19-1.31,2.43-1.85,3.68
			c-3.04,0.75-4.92,0.92-6.01,0.92C26.4,237.38,26.12,237.36,25.9,237.34L25.9,237.34z"/>
	</g>
	<circle class="st2" cx="148.37" cy="150" r="124.54"/>
	<circle class="st3" cx="148.37" cy="150" r="84.48"/>
	<g>
		<path class="st3" d="M92.61,247.02c-0.44-1.62-0.15-3.4,0.88-5.34c0.54-1.01,1.21-2.05,2.02-3.14c1.92-2.56,3.81-4.2,5.68-4.9
			s3.92-0.46,6.15,0.73c1.29,0.68,2.35,1.4,3.2,2.13c0.84,0.74,1.5,1.43,1.97,2.08l-2.49,3.28c-0.55-0.55-1.18-1.09-1.91-1.64
			c-0.73-0.54-1.42-1-2.09-1.35c-0.78-0.41-1.44-0.64-1.99-0.69c-0.55-0.05-1.18,0.19-1.89,0.71s-1.56,1.45-2.57,2.79
			c-0.84,1.13-1.39,1.93-1.64,2.41c-0.39,0.73-0.46,1.37-0.21,1.91c0.25,0.54,0.9,1.09,1.96,1.65c0.87,0.46,1.61,0.83,2.21,1.1
			s1.35,0.58,2.24,0.93l-2.45,3.27c-1.52-0.17-3.31-0.8-5.36-1.89C94.29,249.98,93.05,248.63,92.61,247.02z"/>
		<path class="st3" d="M119.7,239.44l6.08,1.95l-3.41,19.49l-5.05-1.62l0.67-3.05l-5.6-1.79l-2.15,2.58l-5-1.6L119.7,239.44z
			 M118.94,251.68l1.77-7.35l-5.11,6.28L118.94,251.68z"/>
		<path class="st3" d="M130.86,247.17c0.52-1.69,1.34-2.81,2.47-3.37s2.39-0.74,3.78-0.55c2.65,0.37,5.27,0.88,7.88,1.53l-1.28,4.19
			l-6.43-0.9c-0.52-0.07-0.92-0.01-1.19,0.19s-0.47,0.54-0.61,1.02l-0.6,2.02l6.45,1.14l-1.22,3.93l-6.57-0.65l-2.01,6.54
			l-5.07-0.71L130.86,247.17z"/>
		<path class="st3" d="M145.79,262.9c-0.93-0.53-1.41-1.49-1.43-2.88c0-0.3,0.02-0.63,0.06-1l1.44-10.13
			c0.45-3.3,2.33-4.97,5.64-5.03c2.23-0.04,4.91,0.05,8.02,0.26l-0.61,4.34l-6.54,0.11c-0.53,0.01-0.9,0.13-1.13,0.38
			c-0.22,0.24-0.38,0.63-0.46,1.16l-0.16,1.24l6.49,0.16l-0.56,4.07l-6.59,0.37l-0.21,1.53c-0.02,0.09-0.02,0.2-0.02,0.34
			c0.01,0.69,0.43,1.02,1.26,1.01l6.49-0.11l-0.61,4.34c-1.62,0.19-3.01,0.33-4.17,0.43c-1.17,0.1-2.41,0.16-3.73,0.18
			C147.78,263.68,146.73,263.43,145.79,262.9z"/>
		<path class="st3" d="M162.18,242.89l5.07-0.72l-0.34,19.84l-5.07,0.72L162.18,242.89z M164.56,237.47l4.28-0.61l-2.63,4.18
			l-3.24,0.46L164.56,237.47z"/>
		<path class="st3" d="M169.72,241.59l3.9-1.12l7.96,9.08l-1.34-10.98l4.92-1.41l2.41,19.7l-3.9,1.12l-7.96-9.08l1.34,10.98
			l-4.92,1.41L169.72,241.59z"/>
		<path class="st3" d="M191.17,233.6l5.68-2.92l11.35,16.21l-4.72,2.42l-1.68-2.64l-5.23,2.69l0.3,3.35l-4.67,2.4L191.17,233.6z
			 M199.28,242.81l-3.94-6.46l0.82,8.06L199.28,242.81z"/>
	</g>
	<path class="st4" d="M194.47,166.41c0,0-13.21,3.69-7.81-12.76c5.4-16.45,30.5-52.41,25.19-70.51c0,0-14.24,4.1-29.69,18.58
		c0,0-3.62-6.03-11.59-4.83c-7.96,1.21-37.41,6.03-70.24,28.96s-26.55,30.89-26.55,30.89s3.86,23.17,47.31,43.69
		c0,0,6.03,4.34,5.55,13.03c-0.48,8.69,26.55-0.48,49-18.34s35.72-29.2,37.65-33.79S203.89,163.03,194.47,166.41z M186.03,111.14
		c0,0,13.03-14,15.69-13.27c2.65,0.72-19.55,48.27-19.55,48.27S187.96,122.49,186.03,111.14z"/>
	<path class="st5" d="M286.78,64.79c-4.9-7.28-34.11,3.07-74.21,24.7l0,0l-0.08,1.53l0,0c37.16-20.55,63.88-30.87,67.91-24.88
		c6.37,9.46-46.3,56.04-117.64,104.03S28.44,249.39,22.08,239.93c-4.57-6.8,21.34-32.77,62.75-64.65l0,0l-1.49-1.24
		C36.71,210,7.48,240.31,13.22,248.83c7.68,11.42,75.15-20.52,150.7-71.35S294.47,76.21,286.78,64.79z"/>
	<ellipse transform="matrix(0.5 -0.866 0.866 0.5 -184.2869 157.5803)" class="st3" cx="44.33" cy="238.39" rx="15.17" ry="7"/>
	
		<ellipse transform="matrix(0.8804 -0.4743 0.4743 0.8804 -46.1854 75.5925)" class="st3" cx="126.76" cy="129.35" rx="55.53" ry="11.95"/>
	<path class="st5" d="M132.42,139.87c4.32-2.33,8.45-4.71,12.32-7.09c-11.27,1.58-19.29,0.81-19.29,0.81
		c4.34-55.27,79.65-87.85,79.65-87.85C155.86,59.49,75.48,122,77.9,140.83c1.49,11.6,28.52,7.08,49.07,1.89
		C128.77,141.81,130.58,140.85,132.42,139.87z M99.86,136.48c-20.27-9.65,47.79-53.34,47.79-53.34
		c-41.03,40.31-30.17,55.27-30.17,55.27C99.14,138.66,99.86,136.48,99.86,136.48z"/>
</g>
</svg>
