<?xml version="1.0" encoding="utf-8"?>
<!-- Generator: Adobe Illustrator 23.1.1, SVG Export Plug-In . SVG Version: 6.00 Build 0)  -->
<svg version="1.1" id="Camada_1" xmlns="http://www.w3.org/2000/svg" xmlns:xlink="http://www.w3.org/1999/xlink" x="0px" y="0px"
	 viewBox="0 0 60 60" style="enable-background:new 0 0 60 60;" xml:space="preserve">
<style type="text/css">
	.st0{fill:#343A40;}
</style>
<path class="st0" d="M26.22,35.53l9.76-5.62l-9.76-5.62V35.53z"/>
<path class="st0" d="M29.96-0.09c-16.57,0-30,13.43-30,30s13.43,30,30,30s30-13.43,30-30S46.52-0.09,29.96-0.09z M48.7,29.94
	c0,0,0,6.08-0.77,9.02c-0.43,1.61-1.7,2.87-3.3,3.3c-2.93,0.77-14.67,0.77-14.67,0.77s-11.7,0-14.67-0.8
	c-1.61-0.43-2.87-1.7-3.3-3.3c-0.77-2.9-0.77-9.02-0.77-9.02s0-6.08,0.77-9.02c0.43-1.61,1.73-2.9,3.3-3.34
	c2.93-0.77,14.67-0.77,14.67-0.77s11.74,0,14.67,0.8c1.61,0.43,2.87,1.7,3.3,3.3C48.73,23.83,48.7,29.94,48.7,29.94z"/>
</svg>
