<?xml version="1.0" encoding="utf-8"?>
<!-- Generator: Adobe Illustrator 23.1.1, SVG Export Plug-In . SVG Version: 6.00 Build 0)  -->
<svg version="1.1" id="Camada_1" xmlns="http://www.w3.org/2000/svg" xmlns:xlink="http://www.w3.org/1999/xlink" x="0px" y="0px"
	 viewBox="0 0 60 60" style="enable-background:new 0 0 60 60;" xml:space="preserve">
<style type="text/css">
	.st0{fill:#343A40;}
</style>
<g>
	<path class="st0" d="M29.96,5.32c8.01,0,8.96,0.03,12.12,0.17c2.92,0.13,4.51,0.62,5.57,1.03c1.4,0.54,2.4,1.19,3.45,2.24
		c1.05,1.05,1.7,2.05,2.24,3.45c0.41,1.06,0.9,2.65,1.03,5.57c0.14,3.16,0.17,4.11,0.17,12.12s-0.03,8.96-0.17,12.12
		c-0.13,2.92-0.62,4.51-1.03,5.57c-0.54,1.4-1.19,2.4-2.24,3.45c-1.05,1.05-2.05,1.7-3.45,2.24c-1.06,0.41-2.65,0.9-5.57,1.03
		c-3.16,0.14-4.11,0.17-12.12,0.17S21,54.48,17.83,54.33c-2.92-0.13-4.51-0.62-5.57-1.03c-1.4-0.54-2.4-1.19-3.45-2.24
		c-1.05-1.05-1.7-2.05-2.24-3.45c-0.41-1.06-0.9-2.65-1.03-5.57c-0.14-3.16-0.17-4.11-0.17-12.12s0.03-8.96,0.17-12.12
		c0.13-2.92,0.62-4.51,1.03-5.57c0.54-1.4,1.19-2.4,2.24-3.45c1.05-1.05,2.05-1.7,3.45-2.24c1.06-0.41,2.65-0.9,5.57-1.03
		C21,5.35,21.95,5.32,29.96,5.32 M29.96-0.09c-8.15,0-9.17,0.03-12.37,0.18c-3.19,0.15-5.37,0.65-7.28,1.39
		C8.33,2.25,6.66,3.28,4.99,4.95S2.3,8.29,1.53,10.26c-0.74,1.91-1.25,4.09-1.39,7.28c-0.15,3.2-0.18,4.22-0.18,12.37
		s0.03,9.17,0.18,12.37c0.15,3.19,0.65,5.37,1.39,7.28c0.77,1.97,1.79,3.65,3.46,5.31s3.34,2.69,5.31,3.46
		c1.91,0.74,4.09,1.25,7.28,1.39c3.2,0.15,4.22,0.18,12.37,0.18s9.17-0.03,12.37-0.18c3.19-0.15,5.37-0.65,7.28-1.39
		c1.97-0.77,3.65-1.79,5.31-3.46c1.67-1.67,2.69-3.34,3.46-5.31c0.74-1.91,1.25-4.09,1.39-7.28c0.15-3.2,0.18-4.22,0.18-12.37
		s-0.03-9.17-0.18-12.37c-0.15-3.19-0.65-5.37-1.39-7.28c-0.77-1.97-1.79-3.65-3.46-5.31c-1.67-1.67-3.34-2.69-5.31-3.46
		c-1.91-0.74-4.09-1.25-7.28-1.39C39.13-0.05,38.1-0.09,29.96-0.09z M29.96,14.51c-8.51,0-15.41,6.9-15.41,15.41
		s6.9,15.41,15.41,15.41s15.41-6.9,15.41-15.41S38.47,14.51,29.96,14.51z M29.96,39.91c-5.52,0-10-4.48-10-10s4.48-10,10-10
		s10,4.48,10,10S35.48,39.91,29.96,39.91z M49.57,13.9c0,1.99-1.61,3.6-3.6,3.6s-3.6-1.61-3.6-3.6s1.61-3.6,3.6-3.6
		S49.57,11.91,49.57,13.9z"/>
</g>
</svg>
