<?xml version="1.0" encoding="UTF-8" standalone="no"?>
<svg width="100px" height="100px" viewBox="0 0 100 100" version="1.1" xmlns="http://www.w3.org/2000/svg" xmlns:xlink="http://www.w3.org/1999/xlink" xmlns:sketch="http://www.bohemiancoding.com/sketch/ns">
    <!-- Generator: Sketch 3.5.1 (25234) - http://www.bohemiancoding.com/sketch -->
    <title>chip</title>
    <desc>Created with Sketch.</desc>
    <defs></defs>
    <g id="Page-1" stroke="none" stroke-width="1" fill="none" fill-rule="evenodd" sketch:type="MSPage">
        <g id="chip" sketch:type="MSLayerGroup" transform="translate(-19.000000, -19.000000)" fill="#FFFFFF">
            <g transform="translate(19.000000, 19.000000)" sketch:type="MSShapeGroup">
                <path d="M15.9090909,84.0909091 L84.0909091,84.0909091 L84.0909091,15.9090909 L15.9090909,15.9090909 L15.9090909,84.0909091 Z M86.3636364,88.6363636 L13.6363636,88.6363636 C12.3863636,88.6363636 11.3636364,87.6136364 11.3636364,86.3636364 L11.3636364,13.6363636 C11.3636364,12.3818182 12.3863636,11.3636364 13.6363636,11.3636364 L86.3636364,11.3636364 C87.6136364,11.3636364 88.6363636,12.3818182 88.6363636,13.6363636 L88.6363636,86.3636364 C88.6363636,87.6136364 87.6136364,88.6363636 86.3636364,88.6363636 L86.3636364,88.6363636 Z" id="Fill-1"></path>
                <path d="M29.5454545,70.4545455 L70.4545455,70.4545455 L70.4545455,29.5454545 L29.5454545,29.5454545 L29.5454545,70.4545455 Z M72.7272727,75 L27.2727273,75 C26.0227273,75 25,73.9772727 25,72.7272727 L25,27.2727273 C25,26.0181818 26.0227273,25 27.2727273,25 L72.7272727,25 C73.9772727,25 75,26.0181818 75,27.2727273 L75,72.7272727 C75,73.9772727 73.9772727,75 72.7272727,75 L72.7272727,75 Z" id="Fill-3"></path>
                <path d="M18.1818182,13.6363636 C16.9318182,13.6363636 15.9090909,12.6181818 15.9090909,11.3636364 L15.9090909,2.27272727 C15.9090909,1.01818182 16.9318182,0 18.1818182,0 C19.4318182,0 20.4545455,1.01818182 20.4545455,2.27272727 L20.4545455,11.3636364 C20.4545455,12.6181818 19.4318182,13.6363636 18.1818182,13.6363636" id="Fill-4"></path>
                <path d="M27.2727273,13.6363636 C26.0227273,13.6363636 25,12.6181818 25,11.3636364 L25,2.27272727 C25,1.01818182 26.0227273,0 27.2727273,0 C28.5227273,0 29.5454545,1.01818182 29.5454545,2.27272727 L29.5454545,11.3636364 C29.5454545,12.6181818 28.5227273,13.6363636 27.2727273,13.6363636" id="Fill-5"></path>
                <path d="M36.3636364,13.6363636 C35.1136364,13.6363636 34.0909091,12.6181818 34.0909091,11.3636364 L34.0909091,2.27272727 C34.0909091,1.01818182 35.1136364,0 36.3636364,0 C37.6136364,0 38.6363636,1.01818182 38.6363636,2.27272727 L38.6363636,11.3636364 C38.6363636,12.6181818 37.6136364,13.6363636 36.3636364,13.6363636" id="Fill-6"></path>
                <path d="M45.4545455,13.6363636 C44.2045455,13.6363636 43.1818182,12.6181818 43.1818182,11.3636364 L43.1818182,2.27272727 C43.1818182,1.01818182 44.2045455,0 45.4545455,0 C46.7045455,0 47.7272727,1.01818182 47.7272727,2.27272727 L47.7272727,11.3636364 C47.7272727,12.6181818 46.7045455,13.6363636 45.4545455,13.6363636" id="Fill-7"></path>
                <path d="M54.5454545,13.6363636 C53.2954545,13.6363636 52.2727273,12.6181818 52.2727273,11.3636364 L52.2727273,2.27272727 C52.2727273,1.01818182 53.2954545,0 54.5454545,0 C55.7954545,0 56.8181818,1.01818182 56.8181818,2.27272727 L56.8181818,11.3636364 C56.8181818,12.6181818 55.7954545,13.6363636 54.5454545,13.6363636" id="Fill-8"></path>
                <path d="M63.6363636,13.6363636 C62.3863636,13.6363636 61.3636364,12.6181818 61.3636364,11.3636364 L61.3636364,2.27272727 C61.3636364,1.01818182 62.3863636,0 63.6363636,0 C64.8863636,0 65.9090909,1.01818182 65.9090909,2.27272727 L65.9090909,11.3636364 C65.9090909,12.6181818 64.8863636,13.6363636 63.6363636,13.6363636" id="Fill-9"></path>
                <path d="M72.7272727,13.6363636 C71.4772727,13.6363636 70.4545455,12.6181818 70.4545455,11.3636364 L70.4545455,2.27272727 C70.4545455,1.01818182 71.4772727,0 72.7272727,0 C73.9772727,0 75,1.01818182 75,2.27272727 L75,11.3636364 C75,12.6181818 73.9772727,13.6363636 72.7272727,13.6363636" id="Fill-10"></path>
                <path d="M81.8181818,13.6363636 C80.5681818,13.6363636 79.5454545,12.6181818 79.5454545,11.3636364 L79.5454545,2.27272727 C79.5454545,1.01818182 80.5681818,0 81.8181818,0 C83.0681818,0 84.0909091,1.01818182 84.0909091,2.27272727 L84.0909091,11.3636364 C84.0909091,12.6181818 83.0681818,13.6363636 81.8181818,13.6363636" id="Fill-11"></path>
                <path d="M18.1818182,100 C16.9318182,100 15.9090909,98.9772727 15.9090909,97.7272727 L15.9090909,88.6363636 C15.9090909,87.3863636 16.9318182,86.3636364 18.1818182,86.3636364 C19.4318182,86.3636364 20.4545455,87.3863636 20.4545455,88.6363636 L20.4545455,97.7272727 C20.4545455,98.9772727 19.4318182,100 18.1818182,100" id="Fill-12"></path>
                <path d="M27.2727273,100 C26.0227273,100 25,98.9772727 25,97.7272727 L25,88.6363636 C25,87.3863636 26.0227273,86.3636364 27.2727273,86.3636364 C28.5227273,86.3636364 29.5454545,87.3863636 29.5454545,88.6363636 L29.5454545,97.7272727 C29.5454545,98.9772727 28.5227273,100 27.2727273,100" id="Fill-13"></path>
                <path d="M36.3636364,100 C35.1136364,100 34.0909091,98.9772727 34.0909091,97.7272727 L34.0909091,88.6363636 C34.0909091,87.3863636 35.1136364,86.3636364 36.3636364,86.3636364 C37.6136364,86.3636364 38.6363636,87.3863636 38.6363636,88.6363636 L38.6363636,97.7272727 C38.6363636,98.9772727 37.6136364,100 36.3636364,100" id="Fill-14"></path>
                <path d="M45.4545455,100 C44.2045455,100 43.1818182,98.9772727 43.1818182,97.7272727 L43.1818182,88.6363636 C43.1818182,87.3863636 44.2045455,86.3636364 45.4545455,86.3636364 C46.7045455,86.3636364 47.7272727,87.3863636 47.7272727,88.6363636 L47.7272727,97.7272727 C47.7272727,98.9772727 46.7045455,100 45.4545455,100" id="Fill-15"></path>
                <path d="M54.5454545,100 C53.2954545,100 52.2727273,98.9772727 52.2727273,97.7272727 L52.2727273,88.6363636 C52.2727273,87.3863636 53.2954545,86.3636364 54.5454545,86.3636364 C55.7954545,86.3636364 56.8181818,87.3863636 56.8181818,88.6363636 L56.8181818,97.7272727 C56.8181818,98.9772727 55.7954545,100 54.5454545,100" id="Fill-16"></path>
                <path d="M63.6363636,100 C62.3863636,100 61.3636364,98.9772727 61.3636364,97.7272727 L61.3636364,88.6363636 C61.3636364,87.3863636 62.3863636,86.3636364 63.6363636,86.3636364 C64.8863636,86.3636364 65.9090909,87.3863636 65.9090909,88.6363636 L65.9090909,97.7272727 C65.9090909,98.9772727 64.8863636,100 63.6363636,100" id="Fill-17"></path>
                <path d="M72.7272727,100 C71.4772727,100 70.4545455,98.9772727 70.4545455,97.7272727 L70.4545455,88.6363636 C70.4545455,87.3863636 71.4772727,86.3636364 72.7272727,86.3636364 C73.9772727,86.3636364 75,87.3863636 75,88.6363636 L75,97.7272727 C75,98.9772727 73.9772727,100 72.7272727,100" id="Fill-18"></path>
                <path d="M81.8181818,100 C80.5681818,100 79.5454545,98.9772727 79.5454545,97.7272727 L79.5454545,88.6363636 C79.5454545,87.3863636 80.5681818,86.3636364 81.8181818,86.3636364 C83.0681818,86.3636364 84.0909091,87.3863636 84.0909091,88.6363636 L84.0909091,97.7272727 C84.0909091,98.9772727 83.0681818,100 81.8181818,100" id="Fill-19"></path>
                <path d="M11.3636364,84.0909091 L2.27272727,84.0909091 C1.02272727,84.0909091 0,83.0681818 0,81.8181818 C0,80.5681818 1.02272727,79.5454545 2.27272727,79.5454545 L11.3636364,79.5454545 C12.6136364,79.5454545 13.6363636,80.5681818 13.6363636,81.8181818 C13.6363636,83.0681818 12.6136364,84.0909091 11.3636364,84.0909091" id="Fill-20"></path>
                <path d="M11.3636364,75 L2.27272727,75 C1.02272727,75 0,73.9772727 0,72.7272727 C0,71.4772727 1.02272727,70.4545455 2.27272727,70.4545455 L11.3636364,70.4545455 C12.6136364,70.4545455 13.6363636,71.4772727 13.6363636,72.7272727 C13.6363636,73.9772727 12.6136364,75 11.3636364,75" id="Fill-21"></path>
                <path d="M11.3636364,65.9090909 L2.27272727,65.9090909 C1.02272727,65.9090909 0,64.8863636 0,63.6363636 C0,62.3863636 1.02272727,61.3636364 2.27272727,61.3636364 L11.3636364,61.3636364 C12.6136364,61.3636364 13.6363636,62.3863636 13.6363636,63.6363636 C13.6363636,64.8863636 12.6136364,65.9090909 11.3636364,65.9090909" id="Fill-22"></path>
                <path d="M11.3636364,56.8181818 L2.27272727,56.8181818 C1.02272727,56.8181818 0,55.7954545 0,54.5454545 C0,53.2954545 1.02272727,52.2727273 2.27272727,52.2727273 L11.3636364,52.2727273 C12.6136364,52.2727273 13.6363636,53.2954545 13.6363636,54.5454545 C13.6363636,55.7954545 12.6136364,56.8181818 11.3636364,56.8181818" id="Fill-23"></path>
                <path d="M11.3636364,47.7272727 L2.27272727,47.7272727 C1.02272727,47.7272727 0,46.7090909 0,45.4545455 C0,44.2 1.02272727,43.1818182 2.27272727,43.1818182 L11.3636364,43.1818182 C12.6136364,43.1818182 13.6363636,44.2 13.6363636,45.4545455 C13.6363636,46.7090909 12.6136364,47.7272727 11.3636364,47.7272727" id="Fill-24"></path>
                <path d="M11.3636364,38.6363636 L2.27272727,38.6363636 C1.02272727,38.6363636 0,37.6181818 0,36.3636364 C0,35.1090909 1.02272727,34.0909091 2.27272727,34.0909091 L11.3636364,34.0909091 C12.6136364,34.0909091 13.6363636,35.1090909 13.6363636,36.3636364 C13.6363636,37.6181818 12.6136364,38.6363636 11.3636364,38.6363636" id="Fill-25"></path>
                <path d="M11.3636364,29.5454545 L2.27272727,29.5454545 C1.02272727,29.5454545 0,28.5272727 0,27.2727273 C0,26.0181818 1.02272727,25 2.27272727,25 L11.3636364,25 C12.6136364,25 13.6363636,26.0181818 13.6363636,27.2727273 C13.6363636,28.5272727 12.6136364,29.5454545 11.3636364,29.5454545" id="Fill-26"></path>
                <path d="M11.3636364,20.4545455 L2.27272727,20.4545455 C1.02272727,20.4545455 0,19.4363636 0,18.1818182 C0,16.9272727 1.02272727,15.9090909 2.27272727,15.9090909 L11.3636364,15.9090909 C12.6136364,15.9090909 13.6363636,16.9272727 13.6363636,18.1818182 C13.6363636,19.4363636 12.6136364,20.4545455 11.3636364,20.4545455" id="Fill-27"></path>
                <path d="M97.7272727,84.0909091 L88.6363636,84.0909091 C87.3863636,84.0909091 86.3636364,83.0681818 86.3636364,81.8181818 C86.3636364,80.5681818 87.3863636,79.5454545 88.6363636,79.5454545 L97.7272727,79.5454545 C98.9772727,79.5454545 100,80.5681818 100,81.8181818 C100,83.0681818 98.9772727,84.0909091 97.7272727,84.0909091" id="Fill-28"></path>
                <path d="M97.7272727,75 L88.6363636,75 C87.3863636,75 86.3636364,73.9772727 86.3636364,72.7272727 C86.3636364,71.4772727 87.3863636,70.4545455 88.6363636,70.4545455 L97.7272727,70.4545455 C98.9772727,70.4545455 100,71.4772727 100,72.7272727 C100,73.9772727 98.9772727,75 97.7272727,75" id="Fill-29"></path>
                <path d="M97.7272727,65.9090909 L88.6363636,65.9090909 C87.3863636,65.9090909 86.3636364,64.8863636 86.3636364,63.6363636 C86.3636364,62.3863636 87.3863636,61.3636364 88.6363636,61.3636364 L97.7272727,61.3636364 C98.9772727,61.3636364 100,62.3863636 100,63.6363636 C100,64.8863636 98.9772727,65.9090909 97.7272727,65.9090909" id="Fill-30"></path>
                <path d="M97.7272727,56.8181818 L88.6363636,56.8181818 C87.3863636,56.8181818 86.3636364,55.7954545 86.3636364,54.5454545 C86.3636364,53.2954545 87.3863636,52.2727273 88.6363636,52.2727273 L97.7272727,52.2727273 C98.9772727,52.2727273 100,53.2954545 100,54.5454545 C100,55.7954545 98.9772727,56.8181818 97.7272727,56.8181818" id="Fill-31"></path>
                <path d="M97.7272727,47.7272727 L88.6363636,47.7272727 C87.3863636,47.7272727 86.3636364,46.7090909 86.3636364,45.4545455 C86.3636364,44.2 87.3863636,43.1818182 88.6363636,43.1818182 L97.7272727,43.1818182 C98.9772727,43.1818182 100,44.2 100,45.4545455 C100,46.7090909 98.9772727,47.7272727 97.7272727,47.7272727" id="Fill-32"></path>
                <path d="M97.7272727,38.6363636 L88.6363636,38.6363636 C87.3863636,38.6363636 86.3636364,37.6181818 86.3636364,36.3636364 C86.3636364,35.1090909 87.3863636,34.0909091 88.6363636,34.0909091 L97.7272727,34.0909091 C98.9772727,34.0909091 100,35.1090909 100,36.3636364 C100,37.6181818 98.9772727,38.6363636 97.7272727,38.6363636" id="Fill-33"></path>
                <path d="M97.7272727,29.5454545 L88.6363636,29.5454545 C87.3863636,29.5454545 86.3636364,28.5272727 86.3636364,27.2727273 C86.3636364,26.0181818 87.3863636,25 88.6363636,25 L97.7272727,25 C98.9772727,25 100,26.0181818 100,27.2727273 C100,28.5272727 98.9772727,29.5454545 97.7272727,29.5454545" id="Fill-34"></path>
                <path d="M97.7272727,20.4545455 L88.6363636,20.4545455 C87.3863636,20.4545455 86.3636364,19.4363636 86.3636364,18.1818182 C86.3636364,16.9272727 87.3863636,15.9090909 88.6363636,15.9090909 L97.7272727,15.9090909 C98.9772727,15.9090909 100,16.9272727 100,18.1818182 C100,19.4363636 98.9772727,20.4545455 97.7272727,20.4545455" id="Fill-35"></path>
            </g>
        </g>
    </g>
</svg>
